<?xml version="1.0" encoding="utf-8"?>
<!-- Generator: Adobe Illustrator 19.0.0, SVG Export Plug-In . SVG Version: 6.00 Build 0)  -->
<svg version="1.1" id="Layer_1" xmlns="http://www.w3.org/2000/svg" xmlns:xlink="http://www.w3.org/1999/xlink" x="0px" y="0px"
	 viewBox="309 -365.1 1230.9 1522.1" style="enable-background:new 309 -365.1 1230.9 1522.1;" xml:space="preserve">
<style type="text/css">
	.st0{fill:#9AACC0;}
	.st1{fill:#ECEFF3;}
	.st2{fill:#42E8E0;}
	.st3{fill:url(#XMLID_339_);}
	.st4{fill:url(#XMLID_340_);}
	.st5{fill:#24126A;}
	.st6{opacity:0.51;}
	.st7{fill:#453C9E;}
	.st8{fill:url(#XMLID_341_);}
	.st9{fill:url(#XMLID_342_);}
	.st10{fill:#FFFFFF;}
	.st11{fill:#2842A2;}
	.st12{fill:#ADB1F2;}
	.st13{fill:#9198DB;}
	.st14{fill:url(#XMLID_343_);}
	.st15{opacity:0.11;enable-background:new    ;}
	.st16{clip-path:url(#SVGID_2_);}
	.st17{display:none;}
	.st18{display:inline;fill:#42E8E0;}
	.st19{display:inline;}
	.st20{fill:#C1C1C1;}
	.st21{fill:#27AE60;}
	.st22{fill:url(#XMLID_344_);}
	.st23{fill:#FFFFFF;stroke:#005B1F;stroke-width:0.5;stroke-miterlimit:1;}
	.st24{fill:url(#XMLID_345_);}
	.st25{display:inline;fill:#3DB39E;}
	.st26{display:inline;fill:#37A18E;}
	.st27{display:inline;fill:#F2F1EF;}
	.st28{display:inline;fill:#E6E5E3;}
	.st29{fill:url(#XMLID_346_);}
	.st30{fill:url(#XMLID_347_);}
	.st31{fill:url(#XMLID_348_);}
	.st32{fill:url(#XMLID_349_);}
	.st33{fill:url(#XMLID_350_);}
	.st34{clip-path:url(#SVGID_4_);}
	.st35{opacity:0.3;fill:url(#XMLID_351_);enable-background:new    ;}
	.st36{fill:#FDECC4;}
	.st37{fill:#3498DB;}
	.st38{fill:#2C3E50;}
	.st39{fill:#34495E;}
	.st40{fill:url(#XMLID_352_);}
	.st41{fill:url(#XMLID_353_);}
	.st42{fill:#2980B9;}
	.st43{fill:none;stroke:#2980B9;stroke-linecap:round;stroke-miterlimit:10;}
	.st44{fill:url(#XMLID_354_);}
	.st45{fill:url(#XMLID_355_);}
	.st46{fill:#3DB39E;}
	.st47{fill:#37A18E;}
	.st48{fill:#F2F1EF;}
	.st49{fill:#E6E5E3;}
</style>
<g>
	<g id="desk_1_">
		<g id="table_1_">
			<path id="XMLID_337_" class="st0" d="M1529.4,288.9v-14.2l-4.5,2.8c-3.8-5.1-10.2-10.6-20.3-16.4l-708-405.5
				c-65.4-37.4-97.4-18.1-97.4-18.1L412.5,0.9c-4.3,2.4-8.2,5.5-11.2,9.3c-1.6,2-3,4.1-4,6.2l-3.4-0.6v15.3l0,0
				c0.1,8,3.9,18.3,7.8,24.8c3.7,6.1,8.9,11.2,15.1,14.7l700.5,401.2c41.3,23.7,88,11.3,102.2,6.6c2.6-0.9,5.1-2,7.5-3.3L1514.9,311
				C1514.8,311,1529.4,302.4,1529.4,288.9z"/>
			<path id="XMLID_336_" class="st1" d="M796.7-160.2l708,405.5c49.4,28.3,10.2,49.8,10.2,49.8l-288,164.1c-2.4,1.4-4.9,2.5-7.5,3.3
				c-14.2,4.7-60.8,17.1-102.2-6.6L416.8,54.8c-6.2-3.6-11.5-8.6-15.1-14.8c-6.7-11.2-13.5-29.4-0.4-45.7c3.1-3.8,7-6.9,11.2-9.3
				l286.7-163.4C699.2-178.4,731.3-197.7,796.7-160.2z"/>
		</g>
		<g id="XMLID_196_">
			<g id="XMLID_200_">
				<g id="XMLID_334_">
					<path id="XMLID_335_" class="st2" d="M940.3,278.1c-3.6,0-7.1-0.9-10.2-2.7l0,0L726.6,157.9c-1.8-1.1-2.9-3-2.9-5.1
						s1.1-4,2.9-5.1L854,74.1c0.4-0.2,0.8-0.2,1.2,0l213.1,123c1.8,1.1,2.9,3,2.9,5.1s-1.1,4-2.9,5.1l-117.8,68
						C947.5,277.1,943.9,278.1,940.3,278.1z M931.3,273.3c5.5,3.2,12.6,3.2,18.1,0l117.8-68c1.1-0.6,1.8-1.8,1.8-3.1
						s-0.7-2.4-1.8-3.1L854.6,76.4l-0.4,0.2l-126.4,73c-1.1,0.6-1.8,1.8-1.8,3.1c0,1.3,0.7,2.4,1.8,3.1L931.3,273.3z"/>
				</g>
				<g id="XMLID_300_">
					<g id="XMLID_301_">
						<g id="XMLID_302_">
							<g id="XMLID_309_">
								<g id="XMLID_328_">
									
										<linearGradient id="XMLID_339_" gradientUnits="userSpaceOnUse" x1="1116.2635" y1="781.7195" x2="1377.8729" y2="781.7195" gradientTransform="matrix(-1 0 0 -1 2232.2471 791.8)">
										<stop  offset="0" style="stop-color:#C0BFF6"/>
										<stop  offset="0.2938" style="stop-color:#C5C4F7"/>
										<stop  offset="0.6399" style="stop-color:#D3D2F9"/>
										<stop  offset="1" style="stop-color:#E9E9FD"/>
									</linearGradient>
									<path id="XMLID_333_" class="st3" d="M854.4,26.5l28.3-168.2l-2.3-1l3.4-2l0,0c0.7-0.4,1.6-0.4,2.6,0.2L1113-13.7
										c1.9,1.1,3.3,3.8,2.9,5.8l-28.6,169.5c-0.1,0.9-0.6,1.5-1.2,1.7l0,0l-3.4,1.9l-0.6-3.1l0.2,0.1l-225.2-130
										C855.5,31.2,854.1,28.5,854.4,26.5z"/>
									
										<linearGradient id="XMLID_340_" gradientUnits="userSpaceOnUse" x1="1116.2067" y1="714.4801" x2="1161.1465" y2="714.4801" gradientTransform="matrix(-1 0 0 -1 2232.2471 791.8)">
										<stop  offset="0" style="stop-color:#5761D7"/>
										<stop  offset="0.1779" style="stop-color:#5C66D9"/>
										<stop  offset="0.3876" style="stop-color:#6A73DF"/>
										<stop  offset="0.6134" style="stop-color:#8289E8"/>
										<stop  offset="0.849" style="stop-color:#A3A7F5"/>
										<stop  offset="1" style="stop-color:#BCBEFF"/>
									</linearGradient>
									<path id="XMLID_332_" class="st4" d="M1111.8-9l3.7-1.6c0.4,1,0.6,2,0.5,2.8l-28.6,169.5c-0.1,0.9-0.6,1.5-1.2,1.7l0,0
										l-3.4,1.9l-0.6-3.1l0.2,0.1l-11.4-6.6L1111.8-9z"/>
									<path id="XMLID_331_" class="st5" d="M853.8,34.3l226.6,130.8c1.7,1,3.2,0.4,3.6-1.4l28.5-169.5c0.3-1.9-1.1-4.7-2.9-5.8
										L883-142.3c-1.7-1-3.2-0.4-3.6,1.4L850.8,28.6C850.5,30.5,851.9,33.3,853.8,34.3z"/>
									<g id="XMLID_329_" class="st6">
										<polygon id="XMLID_330_" class="st7" points="885.9,-131.5 1104.3,-5.4 1077.2,154.2 859,28.2 										"/>
									</g>
								</g>
								<g id="XMLID_310_">
									
										<linearGradient id="XMLID_341_" gradientUnits="userSpaceOnUse" x1="1151.1322" y1="638.9301" x2="1520.8322" y2="638.9301" gradientTransform="matrix(-1 0 0 -1 2232.2471 791.8)">
										<stop  offset="0" style="stop-color:#5761D7"/>
										<stop  offset="0.1779" style="stop-color:#5C66D9"/>
										<stop  offset="0.3876" style="stop-color:#6A73DF"/>
										<stop  offset="0.6134" style="stop-color:#8289E8"/>
										<stop  offset="0.849" style="stop-color:#A3A7F5"/>
										<stop  offset="1" style="stop-color:#BCBEFF"/>
									</linearGradient>
									<path id="XMLID_327_" class="st8" d="M711.4,114.6l12.4,6.5l124-71.6c2.1-1.2,5.7-1,8.1,0.3l213.8,123.5
										c2-1.1,11.4-5.6,11.4-5.6l-4.5,11.8l0,0c-0.2,0.5-0.6,1-1.3,1.4l-130.6,75.4c-2.1,1.2-5.7,1-8.1-0.3L717.7,129.5
										c-1-0.6-1.6-1.3-1.8-2l0,0L711.4,114.6z"/>
									
										<linearGradient id="XMLID_342_" gradientUnits="userSpaceOnUse" x1="1275.4397" y1="651.3301" x2="1645.2563" y2="651.3301" gradientTransform="matrix(-1 0 0 -1 2232.2471 791.8)">
										<stop  offset="0" style="stop-color:#C0BFF6"/>
										<stop  offset="0.2938" style="stop-color:#C5C4F7"/>
										<stop  offset="0.6399" style="stop-color:#D3D2F9"/>
										<stop  offset="1" style="stop-color:#E9E9FD"/>
									</linearGradient>
									<path id="XMLID_326_" class="st9" d="M713.3,116.6l224.2,129.5c2.5,1.4,6.2,1.6,8.3,0.3l133.8-77.3
										c2.1-1.2,1.9-3.4-0.6-4.8L854.8,34.9c-2.5-1.4-6.2-1.6-8.3-0.3l-133.8,77.3C710.5,113.1,710.8,115.2,713.3,116.6z"/>
									<path id="XMLID_325_" class="st10" d="M713.3,115.3l224.2,129.5c2.5,1.4,6.2,1.6,8.3,0.3l133.8-77.3
										c0.7-0.4,1.1-0.9,1.3-1.4c0.3,1-0.1,2-1.3,2.7l-133.8,77.3c-2.1,1.2-5.8,1.1-8.3-0.3L713.3,116.6c-1.7-1-2.3-2.2-1.9-3.3
										C711.6,114,712.2,114.7,713.3,115.3z"/>
									<path id="XMLID_324_" class="st11" d="M1005.2,218.1v-2.5c0-0.2-0.1-0.3-0.3-0.2l-8.7,5c-0.2,0.1-0.3,0.4-0.3,0.6v2.5
										c0,0.2,0.1,0.3,0.3,0.2l8.7-5C1005,218.6,1005.2,218.3,1005.2,218.1z"/>
									<path id="XMLID_323_" class="st11" d="M992.2,225.6v-2.5c0-0.2-0.1-0.3-0.3-0.2l-8.7,5c-0.2,0.1-0.3,0.4-0.3,0.6v2.5
										c0,0.2,0.1,0.3,0.3,0.2l8.7-5C992,226.1,992.2,225.8,992.2,225.6z"/>
									<path id="XMLID_322_" class="st12" d="M1044.7,161.9L858.4,54.4c-1.2-0.7-2.8-0.7-4,0L788,92.8c-1,0.6-1,1.9,0,2.5
										l186.3,107.5c1.2,0.7,2.8,0.7,4,0l66.4-38.3C1045.7,163.9,1045.7,162.5,1044.7,161.9z"/>
									<path id="XMLID_321_" class="st13" d="M1044.7,164.4l-0.7,0.4L858.4,57.6c-1.2-0.7-2.8-0.7-4,0l-65.7,38l-0.7-0.4
										c-1-0.6-1-1.9,0-2.5l66.4-38.4c1.2-0.7,2.8-0.7,4,0l186.4,107.6C1045.7,162.5,1045.7,163.9,1044.7,164.4z"/>
									<g id="XMLID_313_">
										<polygon id="XMLID_320_" class="st5" points="865,73.1 1022.7,164.1 1029.5,159.8 872.2,68.9 										"/>
										<polygon id="XMLID_319_" class="st5" points="854.7,87.5 997.9,170.2 1002.8,164.7 861.9,83.4 										"/>
										<polygon id="XMLID_318_" class="st5" points="820.2,80.9 999,184.1 1006.2,180 827.4,76.7 										"/>
										<polygon id="XMLID_317_" class="st5" points="808.7,87.5 987.5,190.7 994.7,186.6 815.9,83.4 										"/>
										<polygon id="XMLID_316_" class="st5" points="797.2,94.2 976,197.4 983.2,193.2 804.4,90 										"/>
										<polygon id="XMLID_315_" class="st5" points="1021,163.2 1028.2,167.3 1035.4,163.2 1028.2,159 										"/>
										<polygon id="XMLID_314_" class="st5" points="995.6,168.9 1010.6,177.5 1017.8,173.4 1002.8,164.7 										"/>
									</g>
									
										<linearGradient id="XMLID_343_" gradientUnits="userSpaceOnUse" x1="1338.0321" y1="630.2801" x2="1432.7322" y2="630.2801" gradientTransform="matrix(-1 0 0 -1 2232.2471 791.8)">
										<stop  offset="0" style="stop-color:#C0BFF6"/>
										<stop  offset="0.2938" style="stop-color:#C5C4F7"/>
										<stop  offset="0.6399" style="stop-color:#D3D2F9"/>
										<stop  offset="1" style="stop-color:#E9E9FD"/>
									</linearGradient>
									<path id="XMLID_312_" class="st14" d="M851.2,188L801,159c-2-1.1-2-3,0-4.1l34.4-19.8c2-1.1,5.1-1.1,7.1,0l50.2,29
										c2,1.1,2,3,0,4.1L858.3,188C856.4,189.1,853.2,189.1,851.2,188z"/>
									<path id="XMLID_311_" class="st13" d="M892.7,165.7l-50.2-29c-2-1.1-5.1-1.1-7.1,0L801,156.5c-0.6,0.4-1,0.8-1.2,1.2
										c-0.5-1-0.1-2.1,1.2-2.9l34.4-19.8c2-1.1,5.1-1.1,7.1,0l50.2,29c1.4,0.8,1.8,1.9,1.2,2.9
										C893.7,166.5,893.3,166.1,892.7,165.7z"/>
								</g>
							</g>
							<g id="XMLID_303_" class="st15">
								<g>
									<defs>
										<polygon id="SVGID_1_" points="885.9,-131.5 1104.3,-5.4 1077.2,154.2 859,28.2 										"/>
									</defs>
									<clipPath id="SVGID_2_">
										<use xlink:href="#SVGID_1_"  style="overflow:visible;"/>
									</clipPath>
									<g id="XMLID_304_" class="st16">
										<g id="XMLID_305_">
											<g id="XMLID_306_">
												<polygon id="XMLID_308_" class="st5" points="1086.6,117.3 1101,125.6 1094.6,129.3 1080.2,121 												"/>
												<polygon id="XMLID_307_" class="st5" points="1073.9,129.7 1083.9,135.4 1077.5,139.2 1067.5,133.4 												"/>
											</g>
										</g>
									</g>
								</g>
							</g>
						</g>
					</g>
				</g>
				<g id="XMLID_201_" class="st17">
					<polygon id="XMLID_299_" class="st18" points="934.8,-72.3 952.5,-62.1 953,-65.2 935.3,-75.4 					"/>
					<polygon id="XMLID_298_" class="st18" points="955.3,-60.5 964.9,-54.9 965.5,-58 955.8,-63.6 					"/>
					<polygon id="XMLID_297_" class="st18" points="979.9,-46.3 986.9,-42.3 987.4,-45.3 980.4,-49.3 					"/>
					<polygon id="XMLID_296_" class="st18" points="974.8,-49.2 977.2,-47.8 977.7,-50.9 975.4,-52.3 					"/>
					<polygon id="XMLID_295_" class="st18" points="967.8,-53.3 972.1,-50.8 972.7,-53.8 968.3,-56.3 					"/>
					<polygon id="XMLID_294_" class="st18" points="948.8,-48.9 955.8,-44.8 956.3,-47.9 949.3,-51.9 					"/>
					<polygon id="XMLID_293_" class="st18" points="932.4,-58.3 946.1,-50.4 946.6,-53.5 933,-61.4 					"/>
					<g id="XMLID_290_" class="st19">
						<polygon id="XMLID_292_" class="st2" points="952,-8.6 965.7,-0.7 966.2,-3.8 952.5,-11.7 						"/>
						<polygon id="XMLID_291_" class="st2" points="945,-12.6 949.3,-10.2 949.8,-13.2 945.5,-15.7 						"/>
					</g>
					<polygon id="XMLID_289_" class="st18" points="954.3,-22.6 967.9,-14.7 968.5,-17.8 954.8,-25.7 					"/>
					<polygon id="XMLID_288_" class="st18" points="947.3,-26.7 951.6,-24.2 952.1,-27.3 947.8,-29.8 					"/>
					<polygon id="XMLID_287_" class="st18" points="941.9,52 916.2,37.1 915.7,40.2 941.4,55 					"/>
					<polygon id="XMLID_286_" class="st18" points="951,57.2 944.6,53.5 944.1,56.6 950.5,60.3 					"/>
					<polygon id="XMLID_285_" class="st18" points="996.2,60.2 970.5,45.3 969.9,48.4 995.7,63.3 					"/>
					<polygon id="XMLID_284_" class="st18" points="1005.2,65.4 998.9,61.8 998.4,64.8 1004.7,68.5 					"/>
					<polygon id="XMLID_283_" class="st18" points="924.4,34.1 917.4,30.1 916.9,33.2 923.9,37.2 					"/>
					<polygon id="XMLID_282_" class="st18" points="966.8,43.2 959.8,39.2 959.3,42.3 966.2,46.3 					"/>
					<polygon id="XMLID_281_" class="st18" points="940.7,43.6 927.1,35.7 926.6,38.8 940.2,46.7 					"/>
					<polygon id="XMLID_280_" class="st18" points="947.7,47.6 943.4,45.1 942.9,48.2 947.2,50.7 					"/>
					<polygon id="XMLID_279_" class="st18" points="964.2,57.1 950.6,49.3 950.1,52.3 963.7,60.2 					"/>
					<polygon id="XMLID_278_" class="st18" points="971.2,61.2 966.9,58.7 966.4,61.8 970.7,64.3 					"/>
					<polygon id="XMLID_277_" class="st18" points="965.6,50.2 958.6,46.2 958.1,49.3 965.1,53.3 					"/>
					<polygon id="XMLID_276_" class="st18" points="981.9,59.7 968.3,51.8 967.8,54.9 981.4,62.8 					"/>
					<polygon id="XMLID_275_" class="st18" points="988.9,63.7 984.6,61.2 984.1,64.3 988.4,66.8 					"/>
					<polygon id="XMLID_274_" class="st18" points="932.8,31.3 918.6,23.1 918.1,26.2 932.3,34.4 					"/>
					<polygon id="XMLID_273_" class="st18" points="945.9,38.9 935.5,32.9 935,36 945.3,41.9 					"/>
					<polygon id="XMLID_272_" class="st18" points="955.5,44.4 948.6,40.4 948,43.5 955,47.5 					"/>
					<polygon id="XMLID_271_" class="st18" points="1023.1,75.7 1008.8,67.5 1008.3,70.5 1022.6,78.8 					"/>
					<polygon id="XMLID_270_" class="st18" points="1036.1,83.2 1025.8,77.3 1025.2,80.3 1035.6,86.3 					"/>
					<polygon id="XMLID_269_" class="st18" points="1045.7,88.8 1038.8,84.8 1038.3,87.9 1045.2,91.9 					"/>
					<polygon id="XMLID_268_" class="st18" points="1017.5,-16.9 1031.8,-8.7 1032.3,-11.7 1018,-20 					"/>
					<polygon id="XMLID_267_" class="st18" points="1004.5,-24.4 1014.8,-18.5 1015.3,-21.5 1005,-27.5 					"/>
					<polygon id="XMLID_266_" class="st18" points="994.8,-30 1001.8,-26 1002.3,-29 995.4,-33.1 					"/>
					<polygon id="XMLID_265_" class="st18" points="1012.8,-27.3 1027,-19.1 1027.5,-22.2 1013.3,-30.4 					"/>
					<polygon id="XMLID_264_" class="st18" points="999.8,-34.9 1010.1,-28.9 1010.6,-32 1000.3,-37.9 					"/>
					<polygon id="XMLID_263_" class="st18" points="990.1,-40.4 997.1,-36.4 997.6,-39.5 990.6,-43.5 					"/>
					<polygon id="XMLID_262_" class="st18" points="955.2,-14.4 960,-11.6 960.6,-14.7 955.7,-17.5 					"/>
					<polygon id="XMLID_261_" class="st18" points="946.2,-19.6 952.5,-15.9 953,-19 946.7,-22.7 					"/>
					<polygon id="XMLID_260_" class="st18" points="934.1,24.4 919.9,16.1 919.4,19.2 933.6,27.4 					"/>
					<polygon id="XMLID_259_" class="st18" points="947.1,31.9 936.8,25.9 936.3,29 946.6,35 					"/>
					<polygon id="XMLID_258_" class="st18" points="956.8,37.5 949.8,33.5 949.3,36.5 956.3,40.5 					"/>
					<polygon id="XMLID_257_" class="st18" points="925.9,11.9 921.1,9.1 920.5,12.2 925.3,15 					"/>
					<polygon id="XMLID_256_" class="st18" points="934.9,17.1 928.6,13.5 928,16.5 934.4,20.2 					"/>
					<polygon id="XMLID_255_" class="st18" points="947.9,24.6 937.6,18.7 937.1,21.8 947.4,27.7 					"/>
					<polygon id="XMLID_254_" class="st18" points="961.8,-33.7 966.6,-30.9 967.1,-34 962.3,-36.8 					"/>
					<polygon id="XMLID_253_" class="st18" points="952.7,-38.9 959.1,-35.3 959.6,-38.3 953.2,-42 					"/>
					<polygon id="XMLID_252_" class="st18" points="939.8,-46.4 950,-40.5 950.5,-43.6 940.3,-49.5 					"/>
					<polygon id="XMLID_251_" class="st18" points="969.1,-22.3 979.4,-16.4 979.9,-19.5 969.6,-25.4 					"/>
					<polygon id="XMLID_250_" class="st18" points="952.3,-31.5 966.2,-23.5 966.7,-26.6 952.9,-34.5 					"/>
					<polygon id="XMLID_249_" class="st18" points="945.3,-35.5 949.6,-33 950.2,-36.1 945.8,-38.6 					"/>
					<polygon id="XMLID_248_" class="st18" points="938.6,-39.4 942.9,-36.9 943.4,-40 939.1,-42.5 					"/>
					<g id="XMLID_234_" class="st19">
						<polygon id="XMLID_247_" class="st2" points="939.5,0.2 953.2,8.1 953.7,5 940,-2.9 						"/>
						<polygon id="XMLID_246_" class="st2" points="932.5,-3.9 936.8,-1.4 937.3,-4.4 933,-6.9 						"/>
						<polygon id="XMLID_245_" class="st2" points="940.4,8.4 945.3,11.2 945.8,8.1 941,5.4 						"/>
						<polygon id="XMLID_244_" class="st2" points="957.4,2.8 962.3,5.6 962.8,2.5 958,-0.3 						"/>
						<polygon id="XMLID_243_" class="st2" points="964.3,6.8 975.9,13.4 976.4,10.4 964.8,3.7 						"/>
						<polygon id="XMLID_242_" class="st2" points="977.9,14.6 984.8,18.6 985.3,15.5 978.4,11.5 						"/>
						<polygon id="XMLID_241_" class="st2" points="931.4,3.2 937.7,6.9 938.3,3.8 931.9,0.1 						"/>
						<g id="XMLID_238_">
							<polygon id="XMLID_240_" class="st2" points="930.8,10.4 935.6,13.2 936.1,10.1 931.3,7.3 							"/>
							<polygon id="XMLID_239_" class="st2" points="921.7,5.1 928.1,8.8 928.6,5.8 922.2,2.1 							"/>
						</g>
						<polygon id="XMLID_236_" class="st2" points="950.5,-1.2 954.8,1.3 955.3,-1.8 951,-4.3 						"/>
						<polygon id="XMLID_235_" class="st2" points="943.7,-5.1 948,-2.6 948.6,-5.7 944.2,-8.2 						"/>
					</g>
					<polygon id="XMLID_233_" class="st18" points="976.9,-40.3 991.7,-31.8 992.2,-34.9 977.4,-43.4 					"/>
					<polygon id="XMLID_232_" class="st18" points="960.4,-49.9 974.2,-41.9 974.7,-45 960.9,-53 					"/>
					<polygon id="XMLID_231_" class="st18" points="953.4,-53.9 957.7,-51.4 958.2,-54.5 953.9,-57 					"/>
					<polygon id="XMLID_230_" class="st18" points="946.6,-57.8 951,-55.3 951.5,-58.4 947.2,-60.9 					"/>
					<polygon id="XMLID_202_" class="st18" points="943,-60 933.6,-65.4 934.2,-68.4 943.5,-63 					"/>
				</g>
			</g>
		</g>
		<g id="background_1_">
			<polygon id="XMLID_195_" class="st1" points="1038.8,96.8 1055,1.3 924.4,-74 908.3,21.4 			"/>
		</g>
	</g>
	<g id="Layer_5_1_">
		<g id="step_x5F_1_1_">
			<g id="fields_1_">
				<polygon id="XMLID_194_" class="st20" points="946.7,-20.4 1017.9,20.7 1016.9,26.1 945.7,-14.1 				"/>
				<polygon id="XMLID_191_" class="st20" points="944.3,-5.5 1015.4,35.6 1014.5,41 943.2,0.7 				"/>
			</g>
			<g id="buttons_1_">
				<polygon id="XMLID_190_" class="st21" points="968.3,31.4 960,26.7 961.1,20.5 969.5,25.3 				"/>
				<polygon id="XMLID_189_" class="st20" points="977.8,36.8 969.5,32.1 970.6,25.9 979,30.8 				"/>
			</g>
			<g id="XMLID_128_">
				
					<linearGradient id="XMLID_344_" gradientUnits="userSpaceOnUse" x1="932.762" y1="-388.5742" x2="932.762" y2="-404.9817" gradientTransform="matrix(0.9376 0.5297 -0.1435 0.9855 56.956 -117.9166)">
					<stop  offset="0" style="stop-color:#005637"/>
					<stop  offset="1" style="stop-color:#009245"/>
				</linearGradient>
				<path id="XMLID_188_" class="st22" d="M999.7,0.3l-28.1-15.9c-0.2-0.1-0.3-0.3-0.3-0.5l2.3-15.5c0-0.2,0.2-0.2,0.3-0.1
					l28.1,15.9c0.1,0.1,0.2,0.2,0.3,0.4l2.1,9.6c0,0.1,0,0.2,0,0.3l-4.4,5.9C999.9,0.3,999.8,0.4,999.7,0.3z"/>
				<path id="XMLID_187_" class="st23" d="M973.1-19.4l1.5-10.5l4.8,2.7c0.8,0.4,1.3,0.8,1.7,1.1c0.4,0.3,0.7,0.7,0.9,1.2
					c0.4,0.8,0.5,1.5,0.4,2.3c-0.2,1.1-0.8,1.6-1.9,1.5c0.4,0.4,0.8,0.9,1,1.3c0.3,0.7,0.5,1.4,0.4,2.1c-0.2,1-0.6,1.6-1.4,1.8
					c-0.6,0.1-1.6-0.2-3-1L973.1-19.4L973.1-19.4z M975.6-24.6l3.2,1.8c0.6,0.3,1,0.5,1.3,0.4c0.4-0.1,0.6-0.4,0.7-0.9
					c0.1-0.5,0-1-0.2-1.4c-0.1-0.2-0.3-0.4-0.4-0.6c-0.2-0.1-0.5-0.3-0.9-0.6l-3.2-1.8L975.6-24.6z M974.9-19.9l3,1.7
					c1.4,0.8,2.1,0.6,2.3-0.6c0.1-0.6,0-1.1-0.3-1.5s-0.7-0.8-1.4-1.2l-3.2-1.8L974.9-19.9z"/>
				<path id="XMLID_186_" class="st23" d="M983.8-14.8l6.6,3.7l-0.2,1.3l-8.2-4.6l0.4-2.8c0.1-0.7,0.2-1.2,0.4-1.5s0.4-0.5,0.7-0.6
					s0.7-0.1,1.1,0c0.4,0.1,1,0.4,1.6,0.7l0.7,0.4c0.9,0.5,1.5,0.7,1.8,0.7c0.5,0,0.8-0.3,0.9-1c0.1-0.6-0.1-1.1-0.4-1.5
					c-0.2-0.3-0.8-0.7-1.6-1.2l-4.2-2.4l0.2-1.3l4.4,2.5c1,0.6,1.6,1,1.9,1.2c0.6,0.6,1.1,1.2,1.3,2c0.2,0.6,0.2,1.1,0.1,1.7
					c-0.1,0.7-0.4,1.2-0.8,1.4c-0.4,0.2-0.8,0.3-1.3,0.2c-0.5-0.1-1.2-0.4-2-0.9l-0.9-0.5c-0.8-0.4-1.3-0.6-1.6-0.5
					s-0.5,0.5-0.6,1.2L983.8-14.8z"/>
				<path id="XMLID_185_" class="st23" d="M998.6-6.4l-0.2,1.3l-3.1-1.8c-0.9-0.5-1.6-1-2.1-1.4c-1-0.9-1.6-2-2-3.5
					c-0.2-1-0.3-2-0.1-3.1c0.2-1.2,0.6-2.2,1.2-2.8c0.5-0.5,1.1-0.8,1.8-0.8s1.6,0.4,2.7,1l3.2,1.8l-0.2,1.3l-3.1-1.8
					c-0.7-0.4-1.2-0.6-1.6-0.7c-0.4-0.1-0.7,0-1,0.1c-0.3,0.2-0.6,0.5-0.8,1c-0.2,0.5-0.4,1.1-0.5,1.8c-0.2,1.3,0,2.4,0.4,3.5
					c0.2,0.5,0.5,0.9,0.8,1.2c0.3,0.3,0.9,0.7,1.6,1.1L998.6-6.4z"/>
				
					<linearGradient id="XMLID_345_" gradientUnits="userSpaceOnUse" x1="932.7699" y1="-388.5742" x2="932.7699" y2="-396.8358" gradientTransform="matrix(0.9376 0.5297 -0.1435 0.9855 56.956 -117.9166)">
					<stop  offset="0" style="stop-color:#FFFFFF;stop-opacity:0.1"/>
					<stop  offset="1" style="stop-color:#FFFFFF;stop-opacity:5.000000e-002"/>
				</linearGradient>
				<path id="XMLID_184_" class="st24" d="M971.3-16.1c0,0.2,0.1,0.4,0.3,0.5l28.1,15.9c0.1,0.1,0.2,0,0.3,0l4.4-5.9
					c0,0,0.1-0.1,0-0.2"/>
				<g id="XMLID_158_">
					<path id="XMLID_183_" class="st10" d="M972.9-18c0.1,0,0.3,0.1,0.5,0.2s0.3,0.2,0.5,0.4c0.1,0.1,0.2,0.3,0.1,0.4
						c0,0.1-0.1,0.2-0.3,0.2l0,0c0.2,0.2,0.3,0.4,0.3,0.6c0,0.1-0.1,0.2-0.2,0.3c-0.1,0-0.3,0-0.6-0.2c-0.2-0.1-0.3-0.2-0.4-0.2
						L972.9-18z M973.1-17.2l0.1,0.1c0.2,0.1,0.3,0.1,0.3,0s-0.1-0.2-0.2-0.3c-0.1,0-0.1-0.1-0.2-0.1L973.1-17.2z M973-16.5
						c0,0,0.1,0,0.1,0.1c0.2,0.1,0.3,0.1,0.3-0.1s-0.1-0.3-0.3-0.4L973-17V-16.5L973-16.5z"/>
					<path id="XMLID_177_" class="st10" d="M974.6-17.1l-0.1,0.9c0,0.3,0,0.5,0.2,0.6s0.3,0,0.4-0.3l0.1-0.9l0.4,0.2l-0.1,0.9
						c-0.1,0.5-0.4,0.6-0.8,0.4c-0.4-0.2-0.6-0.6-0.5-1.1l0.1-0.9L974.6-17.1z"/>
					<path id="XMLID_176_" class="st10" d="M975.7-15.1c0.1,0.1,0.2,0.2,0.4,0.3c0.2,0.1,0.3,0.1,0.3,0s-0.1-0.2-0.2-0.4
						c-0.2-0.2-0.4-0.5-0.4-0.7c0-0.3,0.3-0.4,0.7-0.2c0.2,0.1,0.3,0.2,0.4,0.3l-0.1,0.3c-0.1-0.1-0.2-0.2-0.3-0.3s-0.2-0.1-0.3,0
						c0,0.1,0.1,0.2,0.3,0.4c0.3,0.3,0.4,0.5,0.3,0.7c0,0.3-0.3,0.4-0.7,0.2c-0.2-0.1-0.4-0.2-0.4-0.4V-15.1z"/>
					<path id="XMLID_175_" class="st10" d="M977.5-15.4l-0.2,1.6l-0.4-0.2l0.2-1.6L977.5-15.4z"/>
					<path id="XMLID_173_" class="st10" d="M977.6-13.6l0.2-1.6l0.4,0.2l0.2,0.8c0.1,0.2,0.1,0.5,0.2,0.7l0,0c0-0.2,0-0.5,0.1-0.7
						l0.1-0.5l0.3,0.2l-0.2,1.6l-0.4-0.2l-0.2-0.8c-0.1-0.2-0.1-0.5-0.2-0.7l0,0c0,0.2-0.1,0.5-0.1,0.7l-0.1,0.5L977.6-13.6
						L977.6-13.6z"/>
					<path id="XMLID_172_" class="st10" d="M980.2-12.9l-0.6-0.3l-0.1,0.4l0.6,0.4v0.3l-1-0.6l0.2-1.6l1,0.5v0.3l-0.6-0.3v0.3
						l0.6,0.3L980.2-12.9z"/>
					<path id="XMLID_171_" class="st10" d="M980.5-12.4c0.1,0.1,0.2,0.2,0.4,0.3c0.2,0.1,0.3,0.1,0.3,0s-0.1-0.2-0.2-0.4
						c-0.2-0.2-0.4-0.5-0.4-0.7c0-0.3,0.3-0.4,0.7-0.2c0.2,0.1,0.3,0.2,0.4,0.3l-0.1,0.3c-0.1-0.1-0.2-0.2-0.3-0.3s-0.2-0.1-0.3,0
						c0,0.1,0.1,0.2,0.3,0.4c0.3,0.3,0.4,0.5,0.3,0.7c0,0.3-0.3,0.4-0.7,0.2c-0.2-0.1-0.4-0.2-0.4-0.4V-12.4z"/>
					<path id="XMLID_169_" class="st10" d="M981.7-11.7c0.1,0.1,0.2,0.2,0.4,0.3c0.2,0.1,0.3,0.1,0.3,0s-0.1-0.2-0.2-0.4
						c-0.2-0.2-0.4-0.5-0.4-0.7c0-0.3,0.3-0.4,0.7-0.2c0.2,0.1,0.3,0.2,0.4,0.3l-0.1,0.3c-0.1-0.1-0.2-0.2-0.3-0.3
						c-0.2-0.1-0.2-0.1-0.3,0c0,0.1,0.1,0.2,0.3,0.4c0.3,0.3,0.4,0.5,0.3,0.7c0,0.3-0.3,0.4-0.7,0.2c-0.2-0.1-0.4-0.2-0.4-0.4V-11.7
						z"/>
					<path id="XMLID_168_" class="st10" d="M983.8-11.6l-0.4-0.2v-0.3l1.2,0.7v0.3l-0.4-0.2L984-10l-0.4-0.2L983.8-11.6z"/>
					<path id="XMLID_167_" class="st10" d="M986-9.7c-0.1,0.5-0.4,0.7-0.9,0.4c-0.5-0.3-0.7-0.8-0.6-1.3c0.1-0.5,0.4-0.7,0.9-0.4
						C985.9-10.7,986.1-10.2,986-9.7z M984.9-10.4c0,0.3,0.1,0.6,0.3,0.8s0.4,0,0.5-0.3c0-0.3-0.1-0.6-0.3-0.8
						C985.1-10.8,985-10.7,984.9-10.4z"/>
					<path id="XMLID_166_" class="st10" d="M987.8-7.9c-0.1,0-0.2-0.1-0.4-0.2c-0.5-0.3-0.8-0.8-0.7-1.3c0.1-0.6,0.5-0.7,1-0.4
						c0.2,0.1,0.3,0.2,0.4,0.3L988-9.2c-0.1-0.1-0.2-0.2-0.3-0.2c-0.3-0.2-0.5-0.1-0.6,0.3c0,0.3,0.1,0.6,0.4,0.8
						c0.1,0.1,0.2,0.1,0.3,0.1L987.8-7.9z"/>
					<path id="XMLID_165_" class="st10" d="M988.6-9.2l-0.1,0.9c0,0.3,0,0.5,0.2,0.6s0.3,0,0.4-0.3l0.1-0.9l0.4,0.2l-0.1,0.9
						c-0.1,0.5-0.4,0.6-0.8,0.4c-0.4-0.2-0.6-0.6-0.5-1.1l0.1-0.9L988.6-9.2z"/>
					<path id="XMLID_164_" class="st10" d="M989.7-7.2c0.1,0.1,0.2,0.2,0.4,0.3c0.2,0.1,0.3,0.1,0.3,0s-0.1-0.2-0.2-0.4
						c-0.2-0.2-0.4-0.5-0.4-0.7c0-0.3,0.3-0.4,0.7-0.2c0.2,0.1,0.3,0.2,0.4,0.3l-0.1,0.3c-0.1-0.1-0.2-0.2-0.3-0.3
						c-0.2-0.1-0.2-0.1-0.3,0c0,0.1,0.1,0.2,0.3,0.4c0.3,0.3,0.4,0.5,0.3,0.7c0,0.3-0.3,0.4-0.7,0.2c-0.2-0.1-0.4-0.2-0.4-0.4V-7.2z
						"/>
					<path id="XMLID_163_" class="st10" d="M991.4-7.3L991-7.5v-0.3l1.2,0.7v0.3L991.8-7l-0.2,1.3l-0.4-0.2L991.4-7.3L991.4-7.3z"/>
					<path id="XMLID_162_" class="st10" d="M993.6-5.5c-0.1,0.5-0.4,0.7-0.9,0.4c-0.5-0.3-0.7-0.8-0.6-1.3c0.1-0.5,0.4-0.7,0.9-0.4
						C993.5-6.4,993.7-5.9,993.6-5.5z M992.5-6.1c0,0.3,0.1,0.6,0.3,0.8c0.2,0.1,0.4,0,0.5-0.3c0-0.3-0.1-0.6-0.3-0.8
						C992.7-6.6,992.5-6.4,992.5-6.1z"/>
					<path id="XMLID_161_" class="st10" d="M995.1-4.4c0-0.2,0.1-0.4,0.1-0.7l0,0c-0.1,0.2-0.2,0.4-0.3,0.5l-0.3,0.5l-0.3-0.2
						L994.2-5c0-0.2,0-0.5,0-0.7l0,0c0,0.2-0.1,0.5-0.1,0.7L994-4.4l-0.3-0.2l0.3-1.6l0.5,0.3l0.1,0.6c0,0.2,0,0.5,0,0.7l0,0
						c0.1-0.2,0.2-0.4,0.2-0.5l0.2-0.5l0.5,0.3l-0.2,1.7L995-3.8L995.1-4.4z"/>
					<path id="XMLID_160_" class="st10" d="M996.7-3.6l-0.6-0.3L996-3.5l0.6,0.4v0.3l-1-0.6l0.2-1.6l1,0.5v0.3l-0.6-0.3v0.3l0.6,0.3
						L996.7-3.6z"/>
					<path id="XMLID_159_" class="st10" d="M997.2-4.3c0.1,0,0.3,0.1,0.5,0.2s0.4,0.3,0.5,0.4s0.1,0.3,0.1,0.4
						c0,0.2-0.2,0.3-0.3,0.3l0,0c0.1,0.1,0.2,0.3,0.2,0.4c0,0.2,0,0.5,0.1,0.5l-0.4-0.2c0-0.1,0-0.2-0.1-0.4s-0.1-0.3-0.2-0.4
						l-0.1-0.1l-0.1,0.6l-0.3-0.2L997.2-4.3L997.2-4.3z M997.4-3.4l0.1,0.1c0.2,0.1,0.3,0.1,0.3-0.1c0-0.1-0.1-0.3-0.2-0.4
						c-0.1,0-0.1-0.1-0.2-0.1L997.4-3.4L997.4-3.4z"/>
				</g>
			</g>
			<g id="XMLID_44_">
				<path id="XMLID_126_" d="M950.2-14.6c-0.3,0.6-1,0.7-1.6,0.4c-0.6-0.3-0.9-1.1-0.6-1.6c0.3-0.6,1-0.7,1.6-0.4
					C950.2-15.9,950.5-15.2,950.2-14.6z"/>
				<path id="XMLID_125_" d="M952.5-13.3c-0.3,0.6-1,0.7-1.6,0.4s-0.9-1.1-0.6-1.6c0.3-0.6,1-0.7,1.6-0.4
					C952.6-14.6,952.8-13.9,952.5-13.3z"/>
				<path id="XMLID_124_" d="M954.8-12c-0.3,0.6-1,0.7-1.6,0.4c-0.6-0.3-0.9-1.1-0.6-1.6c0.3-0.6,1-0.7,1.6-0.4
					C954.9-13.3,955.1-12.6,954.8-12z"/>
				<path id="XMLID_121_" d="M957.1-10.7c-0.3,0.6-1,0.7-1.6,0.4c-0.6-0.3-0.9-1.1-0.6-1.6c0.3-0.6,1-0.7,1.6-0.4
					C957.2-12,957.4-11.3,957.1-10.7z"/>
				<path id="XMLID_120_" d="M959.4-9.4c-0.3,0.6-1,0.7-1.6,0.4c-0.6-0.3-0.9-1.1-0.6-1.6c0.3-0.6,1-0.7,1.6-0.4S959.7-10,959.4-9.4
					z"/>
				<path id="XMLID_119_" d="M961.7-8.1c-0.3,0.6-1,0.7-1.6,0.4c-0.6-0.3-0.9-1.1-0.6-1.6c0.3-0.6,1-0.7,1.6-0.4S962-8.7,961.7-8.1z
					"/>
				<path id="XMLID_45_" d="M964-6.9c-0.3,0.6-1,0.7-1.6,0.4s-0.9-1.1-0.6-1.6c0.3-0.6,1-0.7,1.6-0.4S964.3-7.4,964-6.9z"/>
			</g>
			<g id="XMLID_25_">
				<path id="XMLID_42_" d="M947.2-0.6c-0.3,0.6-1,0.7-1.6,0.4c-0.6-0.3-0.9-1.1-0.6-1.6c0.3-0.6,1-0.7,1.6-0.4S947.5-1.2,947.2-0.6
					z"/>
				<path id="XMLID_41_" d="M949.5,0.7c-0.3,0.6-1,0.7-1.6,0.4S947,0,947.3-0.5c0.3-0.6,1-0.7,1.6-0.4
					C949.6-0.6,949.8,0.1,949.5,0.7z"/>
				<path id="XMLID_35_" d="M951.8,2c-0.3,0.6-1,0.7-1.6,0.4c-0.6-0.3-0.9-1.1-0.6-1.6c0.3-0.6,1-0.7,1.6-0.4
					C951.9,0.7,952.1,1.4,951.8,2z"/>
				<path id="XMLID_34_" d="M954.1,3.3c-0.3,0.6-1,0.7-1.6,0.4c-0.6-0.3-0.9-1.1-0.6-1.6c0.3-0.6,1-0.7,1.6-0.4
					C954.2,2,954.4,2.7,954.1,3.3z"/>
				<path id="XMLID_33_" d="M956.4,4.6c-0.3,0.6-1,0.7-1.6,0.4c-0.6-0.3-0.9-1.1-0.6-1.6c0.3-0.6,1-0.7,1.6-0.4S956.7,4,956.4,4.6z"
					/>
				<path id="XMLID_27_" d="M958.7,5.9c-0.3,0.6-1,0.7-1.6,0.4c-0.6-0.3-0.9-1.1-0.6-1.6c0.3-0.6,1-0.7,1.6-0.4S959,5.3,958.7,5.9z"
					/>
				<path id="XMLID_26_" d="M961,7.1c-0.3,0.6-1,0.7-1.6,0.4s-0.9-1.1-0.6-1.6c0.3-0.6,1-0.7,1.6-0.4S961.3,6.6,961,7.1z"/>
			</g>
		</g>
		<g id="step_x5F_2_1_" class="st17">
			<path id="XMLID_24_" class="st25" d="M986.6-18.3c10.3,3.4,16.5,19.4,13.8,35.8s-13.3,26.9-23.6,23.6
				c-10.3-3.4-16.5-19.4-13.8-35.8S976.2-21.7,986.6-18.3z"/>
			<path id="XMLID_21_" class="st26" d="M1000,0.3l-21,21.8l-0.5,2.9l0.8,0.2l21.7-17C1000.9,5.5,1000.5,2.8,1000,0.3z"/>
			<path id="XMLID_14_" class="st27" d="M1002.9-0.1l-2.4-6.3c-0.3-0.8-1.1-1.1-1.6-0.5l-18,18.5L976.4,0c-0.3-0.8-1.1-1.1-1.6-0.5
				l-3.7,3.6c-0.6,0.6-0.7,1.7-0.4,2.6l7.2,18.6c0.2,0.5,0.5,0.8,0.9,0.8c0.3,0.2,0.7,0.1,1-0.2l22.7-22.4
				C1003,1.9,1003.2,0.7,1002.9-0.1z"/>
			<path id="XMLID_12_" class="st28" d="M979.7,24.9l22.7-22.4c0.6-0.6,0.7-1.7,0.4-2.6l-0.4-1l-23.3,22.8l-7.6-19.2l-0.6,0.6
				c-0.6,0.6-0.7,1.7-0.4,2.6l7.2,18.6c0.2,0.5,0.5,0.8,0.9,0.8C979,25.2,979.4,25.2,979.7,24.9z"/>
		</g>
	</g>
</g>
<g id="Layer_1_1_" class="st17">
</g>
<g id="desk" class="st17">
	<g id="table" class="st19">
		<path id="XMLID_30_" class="st0" d="M1539.9,255.2V241l-4.5,2.8c-3.8-5.1-10.2-10.6-20.3-16.4l-708-405.5
			c-65.4-37.4-97.4-18.1-97.4-18.1L423-32.8c-4.3,2.4-8.2,5.5-11.2,9.3c-1.6,2-3,4.1-4,6.2l-3.4-0.6v15.3l0,0
			c0.1,8,3.9,18.3,7.8,24.8c3.7,6.1,8.9,11.2,15.1,14.7l700.5,401.2c41.3,23.7,88,11.3,102.2,6.6c2.6-0.9,5.1-2,7.5-3.3l287.9-164.1
			C1525.3,277.3,1539.9,268.7,1539.9,255.2z"/>
		<path id="XMLID_18_" class="st1" d="M807.2-193.9l708,405.5c49.4,28.3,10.2,49.8,10.2,49.8l-288,164.1c-2.4,1.4-4.9,2.5-7.5,3.3
			c-14.2,4.7-60.8,17.1-102.2-6.6L427.3,21.1c-6.2-3.6-11.5-8.6-15.1-14.8c-6.7-11.2-13.5-29.4-0.4-45.7c3.1-3.8,7-6.9,11.2-9.3
			l286.7-163.4C709.7-212.1,741.8-231.4,807.2-193.9z"/>
	</g>
	<g id="XMLID_22_" class="st19">
		<g id="XMLID_36_">
			<g id="XMLID_156_">
				<path id="XMLID_157_" class="st2" d="M950.8,244.4c-3.6,0-7.1-0.9-10.2-2.7l0,0L737.1,124.2c-1.8-1.1-2.9-3-2.9-5.1
					s1.1-4,2.9-5.1l127.4-73.6c0.4-0.2,0.8-0.2,1.2,0l213.1,123c1.8,1.1,2.9,3,2.9,5.1s-1.1,4-2.9,5.1l-117.8,68
					C958,243.4,954.4,244.4,950.8,244.4z M941.8,239.6c5.5,3.2,12.6,3.2,18.1,0l117.8-68c1.1-0.6,1.8-1.8,1.8-3.1s-0.7-2.4-1.8-3.1
					L865.1,42.7l-0.4,0.2l-126.4,73c-1.1,0.6-1.8,1.8-1.8,3.1c0,1.3,0.7,2.4,1.8,3.1L941.8,239.6z"/>
			</g>
			<g id="XMLID_112_">
				<g id="XMLID_113_">
					<g id="XMLID_114_">
						<g id="XMLID_131_">
							<g id="XMLID_150_">
								
									<linearGradient id="XMLID_346_" gradientUnits="userSpaceOnUse" x1="1105.7784" y1="815.3894" x2="1367.3878" y2="815.3894" gradientTransform="matrix(-1 0 0 -1 2232.2471 791.8)">
									<stop  offset="0" style="stop-color:#C0BFF6"/>
									<stop  offset="0.2938" style="stop-color:#C5C4F7"/>
									<stop  offset="0.6399" style="stop-color:#D3D2F9"/>
									<stop  offset="1" style="stop-color:#E9E9FD"/>
								</linearGradient>
								<path id="XMLID_155_" class="st29" d="M864.9-7.2l28.3-168.2l-2.3-1l3.4-2l0,0c0.7-0.4,1.6-0.4,2.6,0.2l226.6,130.8
									c1.9,1.1,3.3,3.8,2.9,5.8l-28.6,169.5c-0.1,0.9-0.6,1.5-1.2,1.7l0,0l-3.4,1.9l-0.6-3.1l0.2,0.1L867.6-1.5
									C866-2.5,864.6-5.2,864.9-7.2z"/>
								
									<linearGradient id="XMLID_347_" gradientUnits="userSpaceOnUse" x1="1105.7216" y1="748.15" x2="1150.6614" y2="748.15" gradientTransform="matrix(-1 0 0 -1 2232.2471 791.8)">
									<stop  offset="0" style="stop-color:#5761D7"/>
									<stop  offset="0.1779" style="stop-color:#5C66D9"/>
									<stop  offset="0.3876" style="stop-color:#6A73DF"/>
									<stop  offset="0.6134" style="stop-color:#8289E8"/>
									<stop  offset="0.849" style="stop-color:#A3A7F5"/>
									<stop  offset="1" style="stop-color:#BCBEFF"/>
								</linearGradient>
								<path id="XMLID_154_" class="st30" d="M1122.3-42.7l3.7-1.6c0.4,1,0.6,2,0.5,2.8L1097.9,128c-0.1,0.9-0.6,1.5-1.2,1.7l0,0
									l-3.4,1.9l-0.6-3.1l0.2,0.1l-11.4-6.6L1122.3-42.7z"/>
								<path id="XMLID_153_" class="st5" d="M864.3,0.6l226.6,130.8c1.7,1,3.2,0.4,3.6-1.4L1123-39.5c0.3-1.9-1.1-4.7-2.9-5.8
									L893.5-176c-1.7-1-3.2-0.4-3.6,1.4L861.3-5.1C861-3.2,862.4-0.4,864.3,0.6z"/>
								<g id="XMLID_151_" class="st6">
									<polygon id="XMLID_152_" class="st7" points="896.4,-165.2 1114.8,-39.1 1087.7,120.5 869.5,-5.5 									"/>
								</g>
							</g>
							<g id="XMLID_132_">
								
									<linearGradient id="XMLID_348_" gradientUnits="userSpaceOnUse" x1="1140.6471" y1="672.6" x2="1510.347" y2="672.6" gradientTransform="matrix(-1 0 0 -1 2232.2471 791.8)">
									<stop  offset="0" style="stop-color:#5761D7"/>
									<stop  offset="0.1779" style="stop-color:#5C66D9"/>
									<stop  offset="0.3876" style="stop-color:#6A73DF"/>
									<stop  offset="0.6134" style="stop-color:#8289E8"/>
									<stop  offset="0.849" style="stop-color:#A3A7F5"/>
									<stop  offset="1" style="stop-color:#BCBEFF"/>
								</linearGradient>
								<path id="XMLID_149_" class="st31" d="M721.9,80.9l12.4,6.5l124-71.6c2.1-1.2,5.7-1,8.1,0.3l213.8,123.5
									c2-1.1,11.4-5.6,11.4-5.6l-4.5,11.8l0,0c-0.2,0.5-0.6,1-1.3,1.4l-130.6,75.4c-2.1,1.2-5.7,1-8.1-0.3L728.2,95.8
									c-1-0.6-1.6-1.3-1.8-2l0,0L721.9,80.9z"/>
								
									<linearGradient id="XMLID_349_" gradientUnits="userSpaceOnUse" x1="1264.9546" y1="685.0001" x2="1634.7712" y2="685.0001" gradientTransform="matrix(-1 0 0 -1 2232.2471 791.8)">
									<stop  offset="0" style="stop-color:#C0BFF6"/>
									<stop  offset="0.2938" style="stop-color:#C5C4F7"/>
									<stop  offset="0.6399" style="stop-color:#D3D2F9"/>
									<stop  offset="1" style="stop-color:#E9E9FD"/>
								</linearGradient>
								<path id="XMLID_148_" class="st32" d="M723.8,82.9L948,212.4c2.5,1.4,6.2,1.6,8.3,0.3l133.8-77.3c2.1-1.2,1.9-3.4-0.6-4.8
									L865.3,1.2c-2.5-1.4-6.2-1.6-8.3-0.3L723.2,78.2C721,79.4,721.3,81.5,723.8,82.9z"/>
								<path id="XMLID_147_" class="st10" d="M723.8,81.6L948,211.1c2.5,1.4,6.2,1.6,8.3,0.3l133.8-77.3c0.7-0.4,1.1-0.9,1.3-1.4
									c0.3,1-0.1,2-1.3,2.7l-133.8,77.3c-2.1,1.2-5.8,1.1-8.3-0.3L723.8,82.9c-1.7-1-2.3-2.2-1.9-3.3
									C722.1,80.3,722.7,81,723.8,81.6z"/>
								<path id="XMLID_146_" class="st11" d="M1015.7,184.4v-2.5c0-0.2-0.1-0.3-0.3-0.2l-8.7,5c-0.2,0.1-0.3,0.4-0.3,0.6v2.5
									c0,0.2,0.1,0.3,0.3,0.2l8.7-5C1015.5,184.9,1015.7,184.6,1015.7,184.4z"/>
								<path id="XMLID_145_" class="st11" d="M1002.7,191.9v-2.5c0-0.2-0.1-0.3-0.3-0.2l-8.7,5c-0.2,0.1-0.3,0.4-0.3,0.6v2.5
									c0,0.2,0.1,0.3,0.3,0.2l8.7-5C1002.5,192.4,1002.7,192.1,1002.7,191.9z"/>
								<path id="XMLID_144_" class="st12" d="M1055.2,128.2L868.9,20.7c-1.2-0.7-2.8-0.7-4,0l-66.4,38.4c-1,0.6-1,1.9,0,2.5
									l186.3,107.5c1.2,0.7,2.8,0.7,4,0l66.4-38.3C1056.2,130.2,1056.2,128.8,1055.2,128.2z"/>
								<path id="XMLID_143_" class="st13" d="M1055.2,130.7l-0.7,0.4L868.9,23.9c-1.2-0.7-2.8-0.7-4,0l-65.7,38l-0.7-0.4
									c-1-0.6-1-1.9,0-2.5l66.4-38.4c1.2-0.7,2.8-0.7,4,0l186.4,107.6C1056.2,128.8,1056.2,130.2,1055.2,130.7z"/>
								<g id="XMLID_135_">
									<polygon id="XMLID_142_" class="st5" points="875.5,39.4 1033.2,130.4 1040,126.1 882.7,35.2 									"/>
									<polygon id="XMLID_141_" class="st5" points="865.2,53.8 1008.4,136.5 1013.3,131 872.4,49.7 									"/>
									<polygon id="XMLID_140_" class="st5" points="830.7,47.2 1009.5,150.4 1016.7,146.3 837.9,43 									"/>
									<polygon id="XMLID_139_" class="st5" points="819.2,53.8 998,157 1005.2,152.9 826.4,49.7 									"/>
									<polygon id="XMLID_138_" class="st5" points="807.7,60.5 986.5,163.7 993.7,159.5 814.9,56.3 									"/>
									<polygon id="XMLID_137_" class="st5" points="1031.5,129.5 1038.7,133.6 1045.9,129.5 1038.7,125.3 									"/>
									<polygon id="XMLID_136_" class="st5" points="1006.1,135.2 1021.1,143.8 1028.3,139.7 1013.3,131 									"/>
								</g>
								
									<linearGradient id="XMLID_350_" gradientUnits="userSpaceOnUse" x1="1327.5471" y1="663.95" x2="1422.2471" y2="663.95" gradientTransform="matrix(-1 0 0 -1 2232.2471 791.8)">
									<stop  offset="0" style="stop-color:#C0BFF6"/>
									<stop  offset="0.2938" style="stop-color:#C5C4F7"/>
									<stop  offset="0.6399" style="stop-color:#D3D2F9"/>
									<stop  offset="1" style="stop-color:#E9E9FD"/>
								</linearGradient>
								<path id="XMLID_134_" class="st33" d="M861.7,154.3l-50.2-29c-2-1.1-2-3,0-4.1l34.4-19.8c2-1.1,5.1-1.1,7.1,0l50.2,29
									c2,1.1,2,3,0,4.1l-34.4,19.8C866.9,155.4,863.7,155.4,861.7,154.3z"/>
								<path id="XMLID_133_" class="st13" d="M903.2,132L853,103c-2-1.1-5.1-1.1-7.1,0l-34.4,19.8c-0.6,0.4-1,0.8-1.2,1.2
									c-0.5-1-0.1-2.1,1.2-2.9l34.4-19.8c2-1.1,5.1-1.1,7.1,0l50.2,29c1.4,0.8,1.8,1.9,1.2,2.9C904.2,132.8,903.8,132.4,903.2,132
									z"/>
							</g>
						</g>
						<g id="XMLID_115_" class="st15">
							<g>
								<defs>
									<polygon id="SVGID_3_" points="896.4,-165.2 1114.8,-39.1 1087.7,120.5 869.5,-5.5 									"/>
								</defs>
								<clipPath id="SVGID_4_">
									<use xlink:href="#SVGID_3_"  style="overflow:visible;"/>
								</clipPath>
								<g id="XMLID_116_" class="st34">
									<g id="XMLID_117_">
										<g id="XMLID_118_">
											<polygon id="XMLID_123_" class="st5" points="1097.1,83.6 1111.5,91.9 1105.1,95.6 1090.7,87.3 											"/>
											<polygon id="XMLID_122_" class="st5" points="1084.4,96 1094.4,101.7 1088,105.5 1078,99.7 											"/>
										</g>
									</g>
								</g>
							</g>
						</g>
					</g>
				</g>
			</g>
			<g id="XMLID_37_" class="st17">
				<polygon id="XMLID_111_" class="st18" points="945.3,-106 963,-95.8 963.5,-98.9 945.8,-109.1 				"/>
				<polygon id="XMLID_110_" class="st18" points="965.8,-94.2 975.4,-88.6 976,-91.7 966.3,-97.3 				"/>
				<polygon id="XMLID_109_" class="st18" points="990.4,-80 997.4,-76 997.9,-79 990.9,-83 				"/>
				<polygon id="XMLID_108_" class="st18" points="985.3,-82.9 987.7,-81.5 988.2,-84.6 985.9,-86 				"/>
				<polygon id="XMLID_107_" class="st18" points="978.3,-87 982.6,-84.5 983.2,-87.5 978.8,-90 				"/>
				<polygon id="XMLID_106_" class="st18" points="959.3,-82.6 966.3,-78.5 966.8,-81.6 959.8,-85.6 				"/>
				<polygon id="XMLID_105_" class="st18" points="942.9,-92 956.6,-84.1 957.1,-87.2 943.5,-95.1 				"/>
				<g id="XMLID_102_" class="st19">
					<polygon id="XMLID_104_" class="st2" points="962.5,-42.3 976.2,-34.4 976.7,-37.5 963,-45.4 					"/>
					<polygon id="XMLID_103_" class="st2" points="955.5,-46.3 959.8,-43.9 960.3,-46.9 956,-49.4 					"/>
				</g>
				<polygon id="XMLID_101_" class="st18" points="964.8,-56.3 978.4,-48.4 979,-51.5 965.3,-59.4 				"/>
				<polygon id="XMLID_100_" class="st18" points="957.8,-60.4 962.1,-57.9 962.6,-61 958.3,-63.5 				"/>
				<polygon id="XMLID_99_" class="st18" points="952.4,18.3 926.7,3.4 926.2,6.5 951.9,21.3 				"/>
				<polygon id="XMLID_98_" class="st18" points="961.5,23.5 955.1,19.8 954.6,22.9 961,26.6 				"/>
				<polygon id="XMLID_97_" class="st18" points="1006.7,26.5 981,11.6 980.4,14.7 1006.2,29.6 				"/>
				<polygon id="XMLID_96_" class="st18" points="1015.7,31.7 1009.4,28.1 1008.9,31.1 1015.2,34.8 				"/>
				<polygon id="XMLID_95_" class="st18" points="934.9,0.4 927.9,-3.6 927.4,-0.5 934.4,3.5 				"/>
				<polygon id="XMLID_94_" class="st18" points="977.3,9.5 970.3,5.5 969.8,8.6 976.7,12.6 				"/>
				<polygon id="XMLID_93_" class="st18" points="951.2,9.9 937.6,2 937.1,5.1 950.7,13 				"/>
				<polygon id="XMLID_92_" class="st18" points="958.2,13.9 953.9,11.4 953.4,14.5 957.7,17 				"/>
				<polygon id="XMLID_91_" class="st18" points="974.7,23.4 961.1,15.6 960.6,18.6 974.2,26.5 				"/>
				<polygon id="XMLID_90_" class="st18" points="981.7,27.5 977.4,25 976.9,28.1 981.2,30.6 				"/>
				<polygon id="XMLID_89_" class="st18" points="976.1,16.5 969.1,12.5 968.6,15.6 975.6,19.6 				"/>
				<polygon id="XMLID_88_" class="st18" points="992.4,26 978.8,18.1 978.3,21.2 991.9,29.1 				"/>
				<polygon id="XMLID_87_" class="st18" points="999.4,30 995.1,27.5 994.6,30.6 998.9,33.1 				"/>
				<polygon id="XMLID_86_" class="st18" points="943.3,-2.4 929.1,-10.6 928.6,-7.5 942.8,0.7 				"/>
				<polygon id="XMLID_85_" class="st18" points="956.4,5.2 946,-0.8 945.5,2.3 955.8,8.2 				"/>
				<polygon id="XMLID_84_" class="st18" points="966,10.7 959.1,6.7 958.5,9.8 965.5,13.8 				"/>
				<polygon id="XMLID_83_" class="st18" points="1033.6,42 1019.3,33.8 1018.8,36.8 1033.1,45.1 				"/>
				<polygon id="XMLID_82_" class="st18" points="1046.6,49.5 1036.3,43.6 1035.7,46.6 1046.1,52.6 				"/>
				<polygon id="XMLID_81_" class="st18" points="1056.2,55.1 1049.3,51.1 1048.8,54.2 1055.7,58.2 				"/>
				<polygon id="XMLID_80_" class="st18" points="1028,-50.6 1042.3,-42.4 1042.8,-45.4 1028.5,-53.7 				"/>
				<polygon id="XMLID_79_" class="st18" points="1015,-58.1 1025.3,-52.2 1025.8,-55.2 1015.5,-61.2 				"/>
				<polygon id="XMLID_78_" class="st18" points="1005.3,-63.7 1012.3,-59.7 1012.8,-62.7 1005.9,-66.8 				"/>
				<polygon id="XMLID_77_" class="st18" points="1023.3,-61 1037.5,-52.8 1038,-55.9 1023.8,-64.1 				"/>
				<polygon id="XMLID_76_" class="st18" points="1010.3,-68.6 1020.6,-62.6 1021.1,-65.7 1010.8,-71.6 				"/>
				<polygon id="XMLID_75_" class="st18" points="1000.6,-74.1 1007.6,-70.1 1008.1,-73.2 1001.1,-77.2 				"/>
				<polygon id="XMLID_74_" class="st18" points="965.7,-48.1 970.5,-45.3 971.1,-48.4 966.2,-51.2 				"/>
				<polygon id="XMLID_73_" class="st18" points="956.7,-53.3 963,-49.6 963.5,-52.7 957.2,-56.4 				"/>
				<polygon id="XMLID_72_" class="st18" points="944.6,-9.3 930.4,-17.6 929.9,-14.5 944.1,-6.3 				"/>
				<polygon id="XMLID_71_" class="st18" points="957.6,-1.8 947.3,-7.8 946.8,-4.7 957.1,1.3 				"/>
				<polygon id="XMLID_70_" class="st18" points="967.3,3.8 960.3,-0.2 959.8,2.8 966.8,6.8 				"/>
				<polygon id="XMLID_69_" class="st18" points="936.4,-21.8 931.6,-24.6 931,-21.5 935.8,-18.7 				"/>
				<polygon id="XMLID_68_" class="st18" points="945.4,-16.6 939.1,-20.2 938.5,-17.2 944.9,-13.5 				"/>
				<polygon id="XMLID_67_" class="st18" points="958.4,-9.1 948.1,-15 947.6,-11.9 957.9,-6 				"/>
				<polygon id="XMLID_66_" class="st18" points="972.3,-67.4 977.1,-64.6 977.6,-67.7 972.8,-70.5 				"/>
				<polygon id="XMLID_65_" class="st18" points="963.2,-72.6 969.6,-69 970.1,-72 963.7,-75.7 				"/>
				<polygon id="XMLID_64_" class="st18" points="950.3,-80.1 960.5,-74.2 961,-77.3 950.8,-83.2 				"/>
				<polygon id="XMLID_63_" class="st18" points="979.6,-56 989.9,-50.1 990.4,-53.2 980.1,-59.1 				"/>
				<polygon id="XMLID_62_" class="st18" points="962.8,-65.2 976.7,-57.2 977.2,-60.3 963.4,-68.2 				"/>
				<polygon id="XMLID_61_" class="st18" points="955.8,-69.2 960.1,-66.7 960.7,-69.8 956.3,-72.3 				"/>
				<polygon id="XMLID_60_" class="st18" points="949.1,-73.1 953.4,-70.6 953.9,-73.7 949.6,-76.2 				"/>
				<g id="XMLID_47_" class="st19">
					<polygon id="XMLID_59_" class="st2" points="950,-33.5 963.7,-25.6 964.2,-28.7 950.5,-36.6 					"/>
					<polygon id="XMLID_58_" class="st2" points="943,-37.6 947.3,-35.1 947.8,-38.1 943.5,-40.6 					"/>
					<polygon id="XMLID_57_" class="st2" points="950.9,-25.3 955.8,-22.5 956.3,-25.6 951.5,-28.3 					"/>
					<polygon id="XMLID_56_" class="st2" points="967.9,-30.9 972.8,-28.1 973.3,-31.2 968.5,-34 					"/>
					<polygon id="XMLID_55_" class="st2" points="974.8,-26.9 986.4,-20.3 986.9,-23.3 975.3,-30 					"/>
					<polygon id="XMLID_54_" class="st2" points="988.4,-19.1 995.3,-15.1 995.8,-18.2 988.9,-22.2 					"/>
					<polygon id="XMLID_53_" class="st2" points="941.9,-30.5 948.2,-26.8 948.8,-29.9 942.4,-33.6 					"/>
					<g id="XMLID_50_">
						<polygon id="XMLID_52_" class="st2" points="941.3,-23.3 946.1,-20.5 946.6,-23.6 941.8,-26.4 						"/>
						<polygon id="XMLID_51_" class="st2" points="932.2,-28.6 938.6,-24.9 939.1,-27.9 932.7,-31.6 						"/>
					</g>
					<polygon id="XMLID_49_" class="st2" points="961,-34.9 965.3,-32.4 965.8,-35.5 961.5,-38 					"/>
					<polygon id="XMLID_48_" class="st2" points="954.2,-38.8 958.5,-36.3 959.1,-39.4 954.7,-41.9 					"/>
				</g>
				<polygon id="XMLID_46_" class="st18" points="987.4,-74 1002.2,-65.5 1002.7,-68.6 987.9,-77.1 				"/>
				<polygon id="XMLID_43_" class="st18" points="970.9,-83.6 984.7,-75.6 985.2,-78.7 971.4,-86.7 				"/>
				<polygon id="XMLID_40_" class="st18" points="963.9,-87.6 968.2,-85.1 968.7,-88.2 964.4,-90.7 				"/>
				<polygon id="XMLID_39_" class="st18" points="957.1,-91.5 961.5,-89 962,-92.1 957.7,-94.6 				"/>
				<polygon id="XMLID_38_" class="st18" points="953.5,-93.7 944.1,-99.1 944.7,-102.1 954,-96.7 				"/>
			</g>
		</g>
	</g>
	<g id="background" class="st19">
		<polygon id="XMLID_16_" class="st1" points="1049.3,63.1 1065.5,-32.4 934.9,-107.7 918.8,-12.3 		"/>
	</g>
</g>
<g id="man">
	
		<linearGradient id="XMLID_351_" gradientUnits="userSpaceOnUse" x1="309.1881" y1="-251.0558" x2="1012.429" y2="-251.0558" gradientTransform="matrix(0.9998 2.116390e-002 2.116390e-002 -0.9998 5.1869 765.3592)">
		<stop  offset="0" style="stop-color:#000000"/>
		<stop  offset="5.231184e-002" style="stop-color:#1E1E1E"/>
		<stop  offset="0.1545" style="stop-color:#525252"/>
		<stop  offset="0.2611" style="stop-color:#808080"/>
		<stop  offset="0.3699" style="stop-color:#A7A7A7"/>
		<stop  offset="0.4815" style="stop-color:#C7C7C7"/>
		<stop  offset="0.5968" style="stop-color:#E0E0E0"/>
		<stop  offset="0.7174" style="stop-color:#F1F1F1"/>
		<stop  offset="0.8467" style="stop-color:#FCFCFC"/>
		<stop  offset="1" style="stop-color:#FFFFFF"/>
	</linearGradient>
	<path id="XMLID_32_" class="st35" d="M1012.1,1037.8c-1.5,69.8-160.1,123.1-354.2,119s-350.4-64-348.9-133.9s160.1-123.1,354.2-119
		S1013.6,968,1012.1,1037.8z"/>
	<path id="XMLID_4_" class="st36" d="M697.2-131.3l5.6-11.8c0.4-0.8,1.4-0.8,1.9-0.1c2.7,4.1,11.1,14.5,26.3,14.5
		c14.3,0,26.8-9.7,31.6-23.2l8.3-23.6c0.2-0.6,0.8-0.9,1.4-0.7c4.5,1.5,22.9,7.1,29.1-0.1c0.2-0.2,0.2-0.4,0.3-0.6
		c0.3-5.7,4.1-77.6,0-89.5c-4.1-11.7-77.8-74.2-86-81.2c-0.4-0.4-1-0.3-1.4,0.1L663-298.1c-0.1,0.1-0.2,0.2-0.2,0.4L630-222.4
		c0,0,0,0,0,0.1c-0.4,0.7-11.8,22.4-13.6,29.7c-1.7,7,19.3,53.6,22,59.5c0.2,0.4,0.5,0.6,1,0.6l56.9,1.8
		C696.6-130.7,697-130.9,697.2-131.3z"/>
	<path id="XMLID_1_" class="st37" d="M628.8-224c5.9,6.6,22.6,19.5,54.8,3.3c3.5-1.8,5.2-6,3.7-9.6c-5.1-12.5-12.5-40.4,21.4-44.7
		c35.2-4.5,26.4,18.1,21.4,27.3c-2.8,5.2,1.2,11.5,7.1,11.1c1.6-0.1,3.4-0.5,5.6-1.2c14.2-5,2.5-42.7,30.4-37.8
		c27.9,4.9,19,14.1,29.5,14.8c9.9,0.6,48.4-14,50.5-39.1c0.3-3.1-1.5-6.1-4.3-7.4l-111.1-53.6c-0.4-0.2-0.8-0.4-1.3-0.5
		c-6.3-1.7-53.9-13.7-71.2,17c-16.3,28.8-34.1,97.3-38.2,113.6C626.5-228.4,627.1-225.9,628.8-224z"/>
	<path id="XMLID_13_" class="st38" d="M662.7,1089.4c0,0-8.2,42.4,39.6,28.1c6.8-2,14.8-5.2,24.1-9.9l66.9-33
		c0,0,32.2-12.4,23.1-59.5c0,0-2.5-16.5-40.5,0l-71.9,38.8L662.7,1089.4z"/>
	<path id="XMLID_9_" class="st39" d="M506.1,1002.1c0,0-3.6,51.8,53.4,14.7s71-45.4,71-45.4s24.8-14.9,9.9-48.7
		c0,0-13.2-12.4-37.2,0s-69.4,33-69.4,33l-21.5,18L506.1,1002.1z"/>
	
		<linearGradient id="XMLID_352_" gradientUnits="userSpaceOnUse" x1="492.7" y1="74.3779" x2="775.9888" y2="74.3779" gradientTransform="matrix(1 0 0 -1 0 791.8)">
		<stop  offset="1.640730e-007" style="stop-color:#006837"/>
		<stop  offset="1" style="stop-color:#22B573"/>
	</linearGradient>
	<path id="XMLID_6_" class="st40" d="M509.1,379.2c0,0,10,516.9-16.4,609.4c0,0,28.1,43,79.3,13.2l64.4-381.6
		c0,0,23.1,432.9,16.5,459.3c0,0,23.1,39.7,85.9,0c0,0,52.4-627.6,32.8-660.7C752,385.6,600,337.7,600,337.7L509.1,379.2z"/>
	<path id="XMLID_15_" class="st36" d="M875.6,277.9c0,0,7.7-42.2,15.3-51.9c6.3-8,17.8-13.1,33.5-16.5c10.7-2.3,21.8-0.1,30.7,6.3
		l18,12.8c6.6,4.7,6.2,14.6-0.8,18.7c-13.1,7.7-30.1,18.6-31.6,24c-2.5,9-9,62-41.2,62.3s-43.4-12.7-43.4-12.7v-37.8L875.6,277.9z"
		/>
	<path id="XMLID_17_" class="st36" d="M776.2,80.9c0,0,34.1,23.9,50.5,15.5c0,0,6.5-4.8,9.1,0.2s7.9,22.8,22,21.7l5.4-0.9
		c0,0-15.8-30.4-15.6-36.4S838,39.3,838,39.3s2.5-6.4-22-8.8s-58.5-9-58.5-9L749.9,59l10.4,20L776.2,80.9z"/>
	
		<linearGradient id="XMLID_353_" gradientUnits="userSpaceOnUse" x1="439" y1="675.0835" x2="881.1534" y2="675.0835" gradientTransform="matrix(1 0 0 -1 0 791.8)">
		<stop  offset="1.640730e-007" style="stop-color:#006837"/>
		<stop  offset="1" style="stop-color:#22B573"/>
	</linearGradient>
	<path id="XMLID_5_" class="st41" d="M572.8-169.5c0,0-2.5-28.9,47.9-20.7c50.4,8.3,101.6,77.7,101.6,77.7s57,26.4,55.3,119
		s-6.6,195.8,16.5,223.9s71,47.1,81.8,47.9c8.7,0.7,9.9,56.2-22.7,79.3c-6.1,4.3-4.5-1-13.6-3.3c-52.4-13.4-59.5-21.5-59.5-21.5
		l1.7,84.3c0,0-193.3,39.7-298.2-57.8l10.7-23.1L439,295.6l54.5-69.4L467.9-91C467.9-91,458-157.1,572.8-169.5z"/>
	
		<ellipse id="XMLID_7_" transform="matrix(0.3704 -0.9289 0.9289 0.3704 694.0583 576.79)" class="st42" cx="772.5" cy="-223.6" rx="9.3" ry="7.1"/>
	<path id="XMLID_11_" class="st42" d="M747.1-169.6c-0.5,1.4,0.3,2.7,1.7,3.2l16.7,6.1l1.7-4.7l-16.7-6.1
		C749.1-171.5,747.6-171,747.1-169.6z"/>
	<path id="XMLID_10_" class="st43" d="M792.2-229.5"/>
	<path id="XMLID_8_" class="st43" d="M759.6-238.3"/>
</g>
<g id="Layer_5" class="st17">
	<g id="step_x5F_1" class="st19">
		<g id="fields">
			<polygon id="XMLID_19_" class="st20" points="957.2,-54.1 1028.4,-13 1027.4,-7.6 956.2,-47.8 			"/>
			<polygon id="XMLID_20_" class="st20" points="954.8,-39.2 1025.9,1.9 1025,7.3 953.7,-33 			"/>
		</g>
		<g id="buttons">
			<polygon id="XMLID_23_" class="st21" points="978.8,-2.3 970.5,-7 971.6,-13.2 980,-8.4 			"/>
			<polygon id="XMLID_28_" class="st20" points="988.3,3.1 980,-1.6 981.1,-7.8 989.5,-2.9 			"/>
		</g>
		<g id="XMLID_207_">
			
				<linearGradient id="XMLID_354_" gradientUnits="userSpaceOnUse" x1="938.2633" y1="-425.6964" x2="938.2633" y2="-442.1039" gradientTransform="matrix(0.9376 0.5297 -0.1435 0.9855 56.956 -117.9166)">
				<stop  offset="0" style="stop-color:#005637"/>
				<stop  offset="1" style="stop-color:#009245"/>
			</linearGradient>
			<path id="XMLID_203_" class="st44" d="M1010.2-33.4l-28.1-15.9c-0.2-0.1-0.3-0.3-0.3-0.5l2.3-15.5c0-0.2,0.2-0.2,0.3-0.1
				l28.1,15.9c0.1,0.1,0.2,0.2,0.3,0.4l2.1,9.6c0,0.1,0,0.2,0,0.3l-4.4,5.9C1010.4-33.4,1010.3-33.3,1010.2-33.4z"/>
			<path id="XMLID_237_" class="st23" d="M983.6-53.1l1.5-10.5l4.8,2.7c0.8,0.4,1.3,0.8,1.7,1.1c0.4,0.3,0.7,0.7,0.9,1.2
				c0.4,0.8,0.5,1.5,0.4,2.3c-0.2,1.1-0.8,1.6-1.9,1.5c0.4,0.4,0.8,0.9,1,1.3c0.3,0.7,0.5,1.4,0.4,2.1c-0.2,1-0.6,1.6-1.4,1.8
				c-0.6,0.1-1.6-0.2-3-1L983.6-53.1L983.6-53.1z M986.1-58.3l3.2,1.8c0.6,0.3,1,0.5,1.3,0.4c0.4-0.1,0.6-0.4,0.7-0.9
				c0.1-0.5,0-1-0.2-1.4c-0.1-0.2-0.3-0.4-0.4-0.6c-0.2-0.1-0.5-0.3-0.9-0.6l-3.2-1.8L986.1-58.3z M985.4-53.6l3,1.7
				c1.4,0.8,2.1,0.6,2.3-0.6c0.1-0.6,0-1.1-0.3-1.5s-0.7-0.8-1.4-1.2l-3.2-1.8L985.4-53.6z"/>
			<path id="XMLID_199_" class="st23" d="M994.3-48.5l6.6,3.7l-0.2,1.3l-8.2-4.6l0.4-2.8c0.1-0.7,0.2-1.2,0.4-1.5s0.4-0.5,0.7-0.6
				s0.7-0.1,1.1,0c0.4,0.1,1,0.4,1.6,0.7l0.7,0.4c0.9,0.5,1.5,0.7,1.8,0.7c0.5,0,0.8-0.3,0.9-1c0.1-0.6-0.1-1.1-0.4-1.5
				c-0.2-0.3-0.8-0.7-1.6-1.2l-4.2-2.4l0.2-1.3l4.4,2.5c1,0.6,1.6,1,1.9,1.2c0.6,0.6,1.1,1.2,1.3,2c0.2,0.6,0.2,1.1,0.1,1.7
				c-0.1,0.7-0.4,1.2-0.8,1.4c-0.4,0.2-0.8,0.3-1.3,0.2c-0.5-0.1-1.2-0.4-2-0.9l-0.9-0.5c-0.8-0.4-1.3-0.6-1.6-0.5s-0.5,0.5-0.6,1.2
				L994.3-48.5z"/>
			<path id="XMLID_198_" class="st23" d="M1009.1-40.1l-0.2,1.3l-3.1-1.8c-0.9-0.5-1.6-1-2.1-1.4c-1-0.9-1.6-2-2-3.5
				c-0.2-1-0.3-2-0.1-3.1c0.2-1.2,0.6-2.2,1.2-2.8c0.5-0.5,1.1-0.8,1.8-0.8s1.6,0.4,2.7,1l3.2,1.8l-0.2,1.3l-3.1-1.8
				c-0.7-0.4-1.2-0.6-1.6-0.7c-0.4-0.1-0.7,0-1,0.1c-0.3,0.2-0.6,0.5-0.8,1s-0.4,1.1-0.5,1.8c-0.2,1.3,0,2.4,0.4,3.5
				c0.2,0.5,0.5,0.9,0.8,1.2c0.3,0.3,0.9,0.7,1.6,1.1L1009.1-40.1z"/>
			
				<linearGradient id="XMLID_355_" gradientUnits="userSpaceOnUse" x1="938.2712" y1="-425.6964" x2="938.2712" y2="-433.958" gradientTransform="matrix(0.9376 0.5297 -0.1435 0.9855 56.956 -117.9166)">
				<stop  offset="0" style="stop-color:#FFFFFF;stop-opacity:0.1"/>
				<stop  offset="1" style="stop-color:#FFFFFF;stop-opacity:5.000000e-002"/>
			</linearGradient>
			<path id="XMLID_197_" class="st45" d="M981.8-49.8c0,0.2,0.1,0.4,0.3,0.5l28.1,15.9c0.1,0.1,0.2,0,0.3,0l4.4-5.9
				c0,0,0.1-0.1,0-0.2"/>
			<g id="XMLID_205_">
				<path id="XMLID_229_" class="st10" d="M983.4-51.7c0.1,0,0.3,0.1,0.5,0.2s0.3,0.2,0.5,0.4c0.1,0.1,0.2,0.3,0.1,0.4
					c0,0.1-0.1,0.2-0.3,0.2l0,0c0.2,0.2,0.3,0.4,0.3,0.6c0,0.1-0.1,0.2-0.2,0.3c-0.1,0-0.3,0-0.6-0.2c-0.2-0.1-0.3-0.2-0.4-0.2
					L983.4-51.7z M983.6-50.9l0.1,0.1c0.2,0.1,0.3,0.1,0.3,0s-0.1-0.2-0.2-0.3c-0.1,0-0.1-0.1-0.2-0.1L983.6-50.9z M983.5-50.2
					c0,0,0.1,0,0.1,0.1c0.2,0.1,0.3,0.1,0.3-0.1s-0.1-0.3-0.3-0.4l-0.1-0.1V-50.2L983.5-50.2z"/>
				<path id="XMLID_193_" class="st10" d="M985.1-50.8l-0.1,0.9c0,0.3,0,0.5,0.2,0.6s0.3,0,0.4-0.3l0.1-0.9l0.4,0.2l-0.1,0.9
					c-0.1,0.5-0.4,0.6-0.8,0.4c-0.4-0.2-0.6-0.6-0.5-1.1l0.1-0.9L985.1-50.8z"/>
				<path id="XMLID_192_" class="st10" d="M986.2-48.8c0.1,0.1,0.2,0.2,0.4,0.3c0.2,0.1,0.3,0.1,0.3,0s-0.1-0.2-0.2-0.4
					c-0.2-0.2-0.4-0.5-0.4-0.7c0-0.3,0.3-0.4,0.7-0.2c0.2,0.1,0.3,0.2,0.4,0.3l-0.1,0.3c-0.1-0.1-0.2-0.2-0.3-0.3s-0.2-0.1-0.3,0
					c0,0.1,0.1,0.2,0.3,0.4c0.3,0.3,0.4,0.5,0.3,0.7c0,0.3-0.3,0.4-0.7,0.2c-0.2-0.1-0.4-0.2-0.4-0.4V-48.8z"/>
				<path id="XMLID_182_" class="st10" d="M988-49.1l-0.2,1.6l-0.4-0.2l0.2-1.6L988-49.1z"/>
				<path id="XMLID_181_" class="st10" d="M988.1-47.3l0.2-1.6l0.4,0.2l0.2,0.8c0.1,0.2,0.1,0.5,0.2,0.7l0,0c0-0.2,0-0.5,0.1-0.7
					l0.1-0.5l0.3,0.2l-0.2,1.6l-0.4-0.2l-0.2-0.8c-0.1-0.2-0.1-0.5-0.2-0.7l0,0c0,0.2-0.1,0.5-0.1,0.7l-0.1,0.5L988.1-47.3
					L988.1-47.3z"/>
				<path id="XMLID_180_" class="st10" d="M990.7-46.6l-0.6-0.3l-0.1,0.4l0.6,0.4v0.3l-1-0.6l0.2-1.6l1,0.5v0.3l-0.6-0.3v0.3
					l0.6,0.3L990.7-46.6z"/>
				<path id="XMLID_179_" class="st10" d="M991-46.1c0.1,0.1,0.2,0.2,0.4,0.3c0.2,0.1,0.3,0.1,0.3,0s-0.1-0.2-0.2-0.4
					c-0.2-0.2-0.4-0.5-0.4-0.7c0-0.3,0.3-0.4,0.7-0.2c0.2,0.1,0.3,0.2,0.4,0.3l-0.1,0.3c-0.1-0.1-0.2-0.2-0.3-0.3s-0.2-0.1-0.3,0
					c0,0.1,0.1,0.2,0.3,0.4c0.3,0.3,0.4,0.5,0.3,0.7c0,0.3-0.3,0.4-0.7,0.2c-0.2-0.1-0.4-0.2-0.4-0.4V-46.1z"/>
				<path id="XMLID_178_" class="st10" d="M992.2-45.4c0.1,0.1,0.2,0.2,0.4,0.3c0.2,0.1,0.3,0.1,0.3,0s-0.1-0.2-0.2-0.4
					c-0.2-0.2-0.4-0.5-0.4-0.7c0-0.3,0.3-0.4,0.7-0.2c0.2,0.1,0.3,0.2,0.4,0.3l-0.1,0.3c-0.1-0.1-0.2-0.2-0.3-0.3
					c-0.2-0.1-0.2-0.1-0.3,0c0,0.1,0.1,0.2,0.3,0.4c0.3,0.3,0.4,0.5,0.3,0.7c0,0.3-0.3,0.4-0.7,0.2c-0.2-0.1-0.4-0.2-0.4-0.4V-45.4z
					"/>
				<path id="XMLID_174_" class="st10" d="M994.3-45.3l-0.4-0.2v-0.3l1.2,0.7v0.3l-0.4-0.2l-0.2,1.3l-0.4-0.2L994.3-45.3z"/>
				<path id="XMLID_218_" class="st10" d="M996.5-43.4c-0.1,0.5-0.4,0.7-0.9,0.4c-0.5-0.3-0.7-0.8-0.6-1.3c0.1-0.5,0.4-0.7,0.9-0.4
					C996.4-44.4,996.6-43.9,996.5-43.4z M995.4-44.1c0,0.3,0.1,0.6,0.3,0.8s0.4,0,0.5-0.3c0-0.3-0.1-0.6-0.3-0.8
					C995.6-44.5,995.5-44.4,995.4-44.1z"/>
				<path id="XMLID_170_" class="st10" d="M998.3-41.6c-0.1,0-0.2-0.1-0.4-0.2c-0.5-0.3-0.8-0.8-0.7-1.3c0.1-0.6,0.5-0.7,1-0.4
					c0.2,0.1,0.3,0.2,0.4,0.3l-0.1,0.3c-0.1-0.1-0.2-0.2-0.3-0.2c-0.3-0.2-0.5-0.1-0.6,0.3c0,0.3,0.1,0.6,0.4,0.8
					c0.1,0.1,0.2,0.1,0.3,0.1L998.3-41.6z"/>
				<path id="XMLID_130_" class="st10" d="M999.1-42.9L999-42c0,0.3,0,0.5,0.2,0.6s0.3,0,0.4-0.3l0.1-0.9l0.4,0.2l-0.1,0.9
					c-0.1,0.5-0.4,0.6-0.8,0.4c-0.4-0.2-0.6-0.6-0.5-1.1l0.1-0.9L999.1-42.9z"/>
				<path id="XMLID_129_" class="st10" d="M1000.2-40.9c0.1,0.1,0.2,0.2,0.4,0.3c0.2,0.1,0.3,0.1,0.3,0s-0.1-0.2-0.2-0.4
					c-0.2-0.2-0.4-0.5-0.4-0.7c0-0.3,0.3-0.4,0.7-0.2c0.2,0.1,0.3,0.2,0.4,0.3l-0.1,0.3c-0.1-0.1-0.2-0.2-0.3-0.3
					c-0.2-0.1-0.2-0.1-0.3,0c0,0.1,0.1,0.2,0.3,0.4c0.3,0.3,0.4,0.5,0.3,0.7c0,0.3-0.3,0.4-0.7,0.2c-0.2-0.1-0.4-0.2-0.4-0.4V-40.9z
					"/>
				<path id="XMLID_127_" class="st10" d="M1001.9-41l-0.4-0.2v-0.3l1.2,0.7v0.3l-0.4-0.2l-0.2,1.3l-0.4-0.2L1001.9-41L1001.9-41z"
					/>
				<path id="XMLID_211_" class="st10" d="M1004.1-39.2c-0.1,0.5-0.4,0.7-0.9,0.4c-0.5-0.3-0.7-0.8-0.6-1.3c0.1-0.5,0.4-0.7,0.9-0.4
					C1004-40.1,1004.2-39.6,1004.1-39.2z M1003-39.8c0,0.3,0.1,0.6,0.3,0.8c0.2,0.1,0.4,0,0.5-0.3c0-0.3-0.1-0.6-0.3-0.8
					C1003.2-40.3,1003-40.1,1003-39.8z"/>
				<path id="XMLID_31_" class="st10" d="M1005.6-38.1c0-0.2,0.1-0.4,0.1-0.7l0,0c-0.1,0.2-0.2,0.4-0.3,0.5l-0.3,0.5l-0.3-0.2
					l-0.1-0.7c0-0.2,0-0.5,0-0.7l0,0c0,0.2-0.1,0.5-0.1,0.7l-0.1,0.6l-0.3-0.2l0.3-1.6l0.5,0.3l0.1,0.6c0,0.2,0,0.5,0,0.7l0,0
					c0.1-0.2,0.2-0.4,0.2-0.5l0.2-0.5l0.5,0.3l-0.2,1.7l-0.3-0.2L1005.6-38.1z"/>
				<path id="XMLID_29_" class="st10" d="M1007.2-37.3l-0.6-0.3l-0.1,0.4l0.6,0.4v0.3l-1-0.6l0.2-1.6l1,0.5v0.3l-0.6-0.3v0.3
					l0.6,0.3L1007.2-37.3z"/>
				<path id="XMLID_206_" class="st10" d="M1007.7-38c0.1,0,0.3,0.1,0.5,0.2s0.4,0.3,0.5,0.4s0.1,0.3,0.1,0.4c0,0.2-0.2,0.3-0.3,0.3
					l0,0c0.1,0.1,0.2,0.3,0.2,0.4c0,0.2,0,0.5,0.1,0.5l-0.4-0.2c0-0.1,0-0.2-0.1-0.4s-0.1-0.3-0.2-0.4l-0.1-0.1l-0.1,0.6l-0.3-0.2
					L1007.7-38L1007.7-38z M1007.9-37.1l0.1,0.1c0.2,0.1,0.3,0.1,0.3-0.1c0-0.1-0.1-0.3-0.2-0.4c-0.1,0-0.1-0.1-0.2-0.1L1007.9-37.1
					L1007.9-37.1z"/>
			</g>
		</g>
		<g id="XMLID_216_">
			<path id="XMLID_208_" d="M960.7-48.3c-0.3,0.6-1,0.7-1.6,0.4c-0.6-0.3-0.9-1.1-0.6-1.6c0.3-0.6,1-0.7,1.6-0.4
				S961-48.9,960.7-48.3z"/>
			<path id="XMLID_209_" d="M963-47c-0.3,0.6-1,0.7-1.6,0.4s-0.9-1.1-0.6-1.6c0.3-0.6,1-0.7,1.6-0.4C963.1-48.3,963.3-47.6,963-47z"
				/>
			<path id="XMLID_210_" d="M965.3-45.7c-0.3,0.6-1,0.7-1.6,0.4c-0.6-0.3-0.9-1.1-0.6-1.6c0.3-0.6,1-0.7,1.6-0.4
				C965.4-47,965.6-46.3,965.3-45.7z"/>
			<path id="XMLID_212_" d="M967.6-44.4c-0.3,0.6-1,0.7-1.6,0.4c-0.6-0.3-0.9-1.1-0.6-1.6c0.3-0.6,1-0.7,1.6-0.4
				C967.7-45.7,967.9-45,967.6-44.4z"/>
			<path id="XMLID_213_" d="M969.9-43.1c-0.3,0.6-1,0.7-1.6,0.4c-0.6-0.3-0.9-1.1-0.6-1.6c0.3-0.6,1-0.7,1.6-0.4
				S970.2-43.7,969.9-43.1z"/>
			<path id="XMLID_214_" d="M972.2-41.8c-0.3,0.6-1,0.7-1.6,0.4c-0.6-0.3-0.9-1.1-0.6-1.6c0.3-0.6,1-0.7,1.6-0.4
				S972.5-42.4,972.2-41.8z"/>
			<path id="XMLID_215_" d="M974.5-40.6c-0.3,0.6-1,0.7-1.6,0.4s-0.9-1.1-0.6-1.6c0.3-0.6,1-0.7,1.6-0.4S974.8-41.1,974.5-40.6z"/>
		</g>
		<g id="XMLID_217_">
			<path id="XMLID_225_" d="M957.7-34.3c-0.3,0.6-1,0.7-1.6,0.4c-0.6-0.3-0.9-1.1-0.6-1.6c0.3-0.6,1-0.7,1.6-0.4
				S958-34.9,957.7-34.3z"/>
			<path id="XMLID_224_" d="M960-33c-0.3,0.6-1,0.7-1.6,0.4s-0.9-1.1-0.6-1.6c0.3-0.6,1-0.7,1.6-0.4C960.1-34.3,960.3-33.6,960-33z"
				/>
			<path id="XMLID_223_" d="M962.3-31.7c-0.3,0.6-1,0.7-1.6,0.4c-0.6-0.3-0.9-1.1-0.6-1.6c0.3-0.6,1-0.7,1.6-0.4
				C962.4-33,962.6-32.3,962.3-31.7z"/>
			<path id="XMLID_222_" d="M964.6-30.4c-0.3,0.6-1,0.7-1.6,0.4c-0.6-0.3-0.9-1.1-0.6-1.6c0.3-0.6,1-0.7,1.6-0.4
				C964.7-31.7,964.9-31,964.6-30.4z"/>
			<path id="XMLID_221_" d="M966.9-29.1c-0.3,0.6-1,0.7-1.6,0.4c-0.6-0.3-0.9-1.1-0.6-1.6c0.3-0.6,1-0.7,1.6-0.4
				S967.2-29.7,966.9-29.1z"/>
			<path id="XMLID_220_" d="M969.2-27.8c-0.3,0.6-1,0.7-1.6,0.4c-0.6-0.3-0.9-1.1-0.6-1.6c0.3-0.6,1-0.7,1.6-0.4
				S969.5-28.4,969.2-27.8z"/>
			<path id="XMLID_219_" d="M971.5-26.6c-0.3,0.6-1,0.7-1.6,0.4s-0.9-1.1-0.6-1.6c0.3-0.6,1-0.7,1.6-0.4S971.8-27.1,971.5-26.6z"/>
		</g>
	</g>
	<g id="step_x5F_2" class="st19">
		<path id="XMLID_228_" class="st46" d="M997.1-52c10.3,3.4,16.5,19.4,13.8,35.8s-13.3,26.9-23.6,23.6C977,4,970.8-12,973.5-28.4
			S986.7-55.4,997.1-52z"/>
		<path id="XMLID_227_" class="st47" d="M1010.5-33.4l-21,21.8L989-8.7l0.8,0.2l21.7-17C1011.4-28.2,1011-30.9,1010.5-33.4z"/>
		<path id="XMLID_226_" class="st48" d="M1013.4-33.8l-2.4-6.3c-0.3-0.8-1.1-1.1-1.6-0.5l-18,18.5l-4.5-11.6
			c-0.3-0.8-1.1-1.1-1.6-0.5l-3.7,3.6c-0.6,0.6-0.7,1.7-0.4,2.6l7.2,18.6c0.2,0.5,0.5,0.8,0.9,0.8c0.3,0.2,0.7,0.1,1-0.2l22.7-22.4
			C1013.5-31.8,1013.7-33,1013.4-33.8z"/>
		<path id="XMLID_204_" class="st49" d="M990.2-8.8l22.7-22.4c0.6-0.6,0.7-1.7,0.4-2.6l-0.4-1L989.6-12L982-31.2l-0.6,0.6
			c-0.6,0.6-0.7,1.7-0.4,2.6l7.2,18.6c0.2,0.5,0.5,0.8,0.9,0.8C989.5-8.5,989.9-8.5,990.2-8.8z"/>
	</g>
</g>
</svg>
